# xmcd
#
# Track frame offsets: 
#        150
#        14425
#        23817
#        33798
#        47499
#        62962
#        75100
#        86838
#        101421
#        113880
#        128011
#        139236
#        151517
#        166268
#        179320
#        193479
#        206786
#        223911
#        236212
#        254232
#
# Disc length: 3583 seconds
#
# Revision: 4
# Processed by: cddbd v1.5.2PL0 Copyright (c) Steve Scherf et al.
# Submitted via: ExactAudioCopy v1.0b4
#
DISCID=180dfd14
DTITLE=Don Williams - Volumes 1 and 2
DYEAR=2011
DGENRE=Country
TTITLE0=Come Early Morning
TTITLE1=Too Late To Turn Back Now
TTITLE2=Endless Sleep
TTITLE3=The Shelter Of Your Eyes
TTITLE4=I Recall A Gypsy Woman
TTITLE5=No Use Running
TTITLE6=How Much Time Does It Take
TTITLE7=My Woman's Love
TTITLE8=Don't You Believe
TTITLE9=Amanda
TTITLE10=Wish I Was In Nashville
TTITLE11=Your Sweet Love
TTITLE12=She's In Love With A Rodeo Man
TTITLE13=Atta Way To Go
TTITLE14=We Should Be Together
TTITLE15=Loving You So Long Now
TTITLE16=Oh Misery
TTITLE17=Miller's Cave
TTITLE18=I Don't Think About Her No More
TTITLE19=Down The Road I Go
EXTD=
EXTT0=
EXTT1=
EXTT2=
EXTT3=
EXTT4=
EXTT5=
EXTT6=
EXTT7=
EXTT8=
EXTT9=
EXTT10=
EXTT11=
EXTT12=
EXTT13=
EXTT14=
EXTT15=
EXTT16=
EXTT17=
EXTT18=
EXTT19=
PLAYORDER=
